<?xml version="1.0" standalone="no"?><!DOCTYPE svg PUBLIC "-//W3C//DTD SVG 1.1//EN" "http://www.w3.org/Graphics/SVG/1.1/DTD/svg11.dtd"><svg t="1614128324674" class="icon" viewBox="0 0 1024 1024" version="1.1" xmlns="http://www.w3.org/2000/svg" p-id="2535" xmlns:xlink="http://www.w3.org/1999/xlink" width="32" height="32"><defs><style type="text/css"></style></defs><path d="M642.101895 725.800421h172.355368a19.240421 19.240421 0 0 0 0-38.373053h-172.355368a19.186526 19.186526 0 0 0 0 38.373053" fill="#00CDCD" p-id="2536"></path><path d="M642.101895 689.960421a16.599579 16.599579 0 0 0 0 33.253053h172.355368a16.599579 16.599579 0 1 0 0-33.306948h-172.355368z m172.355368 38.373053h-172.355368a21.719579 21.719579 0 0 1 0-43.493053h172.355368a21.773474 21.773474 0 0 1 0 43.493053zM642.101895 581.847579h172.355368a19.186526 19.186526 0 0 0 0-38.426947h-172.355368a19.132632 19.132632 0 0 0-19.186527 19.186526c0 10.671158 8.515368 19.240421 19.186527 19.240421" fill="#00CDCD" p-id="2537"></path><path d="M642.101895 545.953684a16.653474 16.653474 0 0 0 0 33.306948h172.355368a16.653474 16.653474 0 1 0 0-33.306948h-172.355368z m172.355368 38.373053h-172.355368a21.719579 21.719579 0 0 1 0-43.493053h172.355368a21.773474 21.773474 0 0 1 0 43.493053zM642.101895 437.840842h172.355368a19.186526 19.186526 0 0 0 0-38.373053h-172.355368a19.132632 19.132632 0 0 0-19.186527 19.186527c0 10.617263 8.515368 19.186526 19.186527 19.186526" fill="#00CDCD" p-id="2538"></path><path d="M642.101895 402.000842a16.653474 16.653474 0 0 0 0 33.306947h172.355368c9.162105 0 16.599579-7.491368 16.599579-16.653473a16.653474 16.653474 0 0 0-16.599579-16.707369h-172.355368z m172.355368 38.373053h-172.355368a21.719579 21.719579 0 0 1 0-43.493053h172.355368a21.773474 21.773474 0 0 1 0 43.493053zM393.162105 437.840842H201.781895a19.186526 19.186526 0 0 0 0 38.426947h191.38021a19.132632 19.132632 0 0 0 19.186527-19.240421 19.132632 19.132632 0 0 0-19.186527-19.186526" fill="#00CDCD" p-id="2539"></path><path d="M201.781895 440.427789a16.599579 16.599579 0 0 0 0 33.253053h191.38021a16.599579 16.599579 0 0 0 0-33.253053H201.781895z m191.38021 38.373053H201.781895a21.719579 21.719579 0 0 1 0-43.493053h191.38021a21.773474 21.773474 0 0 1 0 43.493053zM393.162105 265.162105H201.781895a19.186526 19.186526 0 0 0 0 38.373053h191.38021a19.132632 19.132632 0 0 0 19.186527-19.240421 19.132632 19.132632 0 0 0-19.186527-19.186526" fill="#00CDCD" p-id="2540"></path><path d="M201.781895 267.641263a16.653474 16.653474 0 0 0 0 33.360842h191.38021c9.162105 0 16.599579-7.545263 16.599579-16.707368a16.653474 16.653474 0 0 0-16.599579-16.653474H201.781895z m191.38021 38.426948H201.781895a21.719579 21.719579 0 0 1 0-43.546948h191.38021a21.773474 21.773474 0 0 1 0 43.546948z" fill="#00CDCD" p-id="2541"></path><path d="M527.252211 936.96h-114.79579V706.56c0-31.797895-25.815579-57.667368-57.451789-57.667368H240.047158c-31.636211 0-57.397895 25.869474-57.397895 57.667368v230.346105H67.799579V149.773474c0-31.744 25.761684-57.667368 57.451789-57.667369h344.549053c31.690105 0 57.451789 25.923368 57.45179 57.667369v787.186526z m-153.222737 0H220.968421V706.56c0-10.563368 8.623158-19.240421 19.078737-19.240421h114.795789c10.563368 0 19.186526 8.623158 19.186527 19.240421v230.346105zM852.776421 255.461053h-287.258947V149.827368A95.932632 95.932632 0 0 0 469.854316 53.679158H125.251368A95.932632 95.932632 0 0 0 29.480421 149.827368v806.373053c0 10.617263 8.569263 19.186526 19.186526 19.186526h497.77179a19.186526 19.186526 0 0 0 19.132631-19.186526V293.888h287.097264c31.636211 0 57.451789 25.869474 57.451789 57.559579v585.512421h-103.477895l-0.754526-0.053895h-172.355368a19.186526 19.186526 0 0 0 0 38.373053h0.161684v0.053895h295.612631a19.294316 19.294316 0 0 0 19.240421-19.186527V351.393684c0-52.924632-43.008-95.932632-95.770947-95.932631z" fill="#00CDCD" p-id="2542"></path><path d="M223.447579 934.373053h147.994947v-227.759158a16.599579 16.599579 0 0 0-16.545684-16.653474H240.047158a16.653474 16.653474 0 0 0-16.599579 16.653474v227.759158z m153.114947 5.173894H218.327579V706.56c0-12.018526 9.754947-21.773474 21.719579-21.773474h114.795789c12.018526 0 21.719579 9.701053 21.719579 21.773474v232.933053z m38.480842-5.173894h109.67579V149.827368a54.972632 54.972632 0 0 0-54.918737-55.026526H125.251368a54.972632 54.972632 0 0 0-54.972631 54.972632v784.707368h109.783579V706.56c0-33.199158 26.947368-60.200421 59.984842-60.200421h114.903579c33.145263 0 60.092632 27.001263 60.092631 60.200421v227.759158z m114.79579 5.173894H409.869474V706.56c0-30.342737-24.629895-55.080421-54.972632-55.080421H240.047158c-30.288842 0-54.864842 24.737684-54.864842 55.080421v232.933053H65.212632V149.773474c0-33.199158 26.947368-60.146526 60.038736-60.146527h344.549053c33.091368 0 59.984842 26.947368 59.984842 60.146527v789.773473z m106.172631 33.253053h293.241264a16.599579 16.599579 0 0 0 16.707368-16.707368V351.501474c0-51.577263-41.822316-93.507368-93.237895-93.507369H562.984421V149.773474c0-51.523368-41.822316-93.453474-93.184-93.453474H125.251368c-51.415579 0-93.237895 41.930105-93.237894 93.453474V956.092632c0 9.162105 7.437474 16.653474 16.599579 16.653473h497.771789c9.162105 0 16.599579-7.491368 16.599579-16.653473V291.354947h289.630316c33.145263 0 60.092632 26.947368 60.092631 60.146527v587.991579h-279.174736a16.653474 16.653474 0 0 0 0 33.253052l2.533052 0.053895z m293.241264 5.12l-298.145685-0.215579a21.773474 21.773474 0 0 1 2.371369-43.331368h274.108631V351.501474A54.972632 54.972632 0 0 0 852.614737 296.421053h-284.564211v659.725473c0 12.018526-9.701053 21.773474-21.665684 21.773474H48.613053A21.773474 21.773474 0 0 1 26.947368 956.146526V149.827368A98.627368 98.627368 0 0 1 125.251368 51.2h344.549053c54.218105 0 98.304 44.193684 98.304 98.573474v103.100631h284.618105a98.627368 98.627368 0 0 1 98.357895 98.627369v604.698947a21.935158 21.935158 0 0 1-21.827368 21.719579z" fill="#00CDCD" p-id="2543"></path></svg>